<mxfile host="app.diagrams.net" modified="2023-03-04T21:05:13.485Z" agent="5.0 (Windows NT 10.0; Win64; x64) AppleWebKit/537.36 (KHTML, like Gecko) Chrome/110.0.0.0 Safari/537.36" etag="WKQ5ENQ0s7AFiO41qCpj" version="20.8.23" type="github">
  <diagram name="Page-1" id="Pt3JbAHFo6uhoHrZtffS">
    <mxGraphModel dx="1434" dy="796" grid="0" gridSize="10" guides="1" tooltips="1" connect="1" arrows="1" fold="1" page="1" pageScale="1" pageWidth="1654" pageHeight="1169" math="0" shadow="0">
      <root>
        <mxCell id="0" />
        <mxCell id="1" parent="0" />
        <mxCell id="p2TIBVilb8GY4Pw8PxJR-2" value="" style="rounded=1;whiteSpace=wrap;html=1;" vertex="1" parent="1">
          <mxGeometry x="340" y="190" width="210" height="190" as="geometry" />
        </mxCell>
        <mxCell id="p2TIBVilb8GY4Pw8PxJR-3" value="&lt;b&gt;Control Plane&lt;/b&gt;" style="text;html=1;strokeColor=none;fillColor=none;align=center;verticalAlign=middle;whiteSpace=wrap;rounded=0;" vertex="1" parent="1">
          <mxGeometry x="390" y="200" width="110" height="30" as="geometry" />
        </mxCell>
        <mxCell id="p2TIBVilb8GY4Pw8PxJR-4" value="HPA Controller" style="rounded=1;whiteSpace=wrap;html=1;fillColor=#B3B3B3;" vertex="1" parent="1">
          <mxGeometry x="400" y="310" width="90" height="50" as="geometry" />
        </mxCell>
        <mxCell id="p2TIBVilb8GY4Pw8PxJR-5" value="Ad hoc control loop (every 15 seconds by default), querying metrics api server for metric data" style="text;html=1;strokeColor=none;fillColor=none;align=center;verticalAlign=middle;whiteSpace=wrap;rounded=0;" vertex="1" parent="1">
          <mxGeometry x="320" y="390" width="115" height="80" as="geometry" />
        </mxCell>
        <mxCell id="p2TIBVilb8GY4Pw8PxJR-6" value="" style="rounded=1;whiteSpace=wrap;html=1;" vertex="1" parent="1">
          <mxGeometry x="695" y="200" width="280" height="190" as="geometry" />
        </mxCell>
        <mxCell id="p2TIBVilb8GY4Pw8PxJR-7" value="&lt;b&gt;Worker Node 1&lt;/b&gt;" style="text;html=1;strokeColor=none;fillColor=none;align=center;verticalAlign=middle;whiteSpace=wrap;rounded=0;" vertex="1" parent="1">
          <mxGeometry x="815" y="210" width="110" height="30" as="geometry" />
        </mxCell>
        <mxCell id="p2TIBVilb8GY4Pw8PxJR-8" value="Pod 1" style="rounded=1;whiteSpace=wrap;html=1;" vertex="1" parent="1">
          <mxGeometry x="800" y="240" width="45" height="20" as="geometry" />
        </mxCell>
        <mxCell id="p2TIBVilb8GY4Pw8PxJR-9" value="Pod 2" style="rounded=1;whiteSpace=wrap;html=1;" vertex="1" parent="1">
          <mxGeometry x="800" y="290" width="45" height="20" as="geometry" />
        </mxCell>
        <mxCell id="p2TIBVilb8GY4Pw8PxJR-10" value="Pod 3" style="rounded=1;whiteSpace=wrap;html=1;" vertex="1" parent="1">
          <mxGeometry x="800" y="340" width="45" height="20" as="geometry" />
        </mxCell>
        <mxCell id="p2TIBVilb8GY4Pw8PxJR-12" value="" style="rounded=1;whiteSpace=wrap;html=1;" vertex="1" parent="1">
          <mxGeometry x="855" y="265" width="114" height="115" as="geometry" />
        </mxCell>
        <mxCell id="p2TIBVilb8GY4Pw8PxJR-13" value="&lt;b&gt;kubelet&lt;/b&gt;" style="text;html=1;strokeColor=none;fillColor=none;align=center;verticalAlign=middle;whiteSpace=wrap;rounded=0;" vertex="1" parent="1">
          <mxGeometry x="875" y="280" width="74" height="20" as="geometry" />
        </mxCell>
        <mxCell id="p2TIBVilb8GY4Pw8PxJR-14" value="cAdvisor" style="rounded=1;whiteSpace=wrap;html=1;fillColor=#B3B3B3;" vertex="1" parent="1">
          <mxGeometry x="875" y="310" width="84" height="50" as="geometry" />
        </mxCell>
        <mxCell id="p2TIBVilb8GY4Pw8PxJR-23" value="" style="rounded=1;whiteSpace=wrap;html=1;fillColor=#B3B3B3;rotation=90;" vertex="1" parent="1">
          <mxGeometry x="680" y="285" width="110" height="50" as="geometry" />
        </mxCell>
        <mxCell id="p2TIBVilb8GY4Pw8PxJR-24" value="SCALE" style="rounded=1;whiteSpace=wrap;html=1;rotation=90;" vertex="1" parent="1">
          <mxGeometry x="692" y="300" width="70" height="20" as="geometry" />
        </mxCell>
        <mxCell id="p2TIBVilb8GY4Pw8PxJR-25" value="Deployment" style="text;html=1;strokeColor=none;fillColor=none;align=center;verticalAlign=middle;whiteSpace=wrap;rounded=0;rotation=90;" vertex="1" parent="1">
          <mxGeometry x="695" y="300" width="115" height="20" as="geometry" />
        </mxCell>
        <mxCell id="p2TIBVilb8GY4Pw8PxJR-26" value="" style="rounded=1;whiteSpace=wrap;html=1;" vertex="1" parent="1">
          <mxGeometry x="695" y="420" width="280" height="190" as="geometry" />
        </mxCell>
        <mxCell id="p2TIBVilb8GY4Pw8PxJR-27" value="&lt;b&gt;Worker Node 2&lt;/b&gt;" style="text;html=1;strokeColor=none;fillColor=none;align=center;verticalAlign=middle;whiteSpace=wrap;rounded=0;" vertex="1" parent="1">
          <mxGeometry x="815" y="430" width="110" height="30" as="geometry" />
        </mxCell>
        <mxCell id="p2TIBVilb8GY4Pw8PxJR-28" value="Pod 1" style="rounded=1;whiteSpace=wrap;html=1;" vertex="1" parent="1">
          <mxGeometry x="800" y="460" width="45" height="20" as="geometry" />
        </mxCell>
        <mxCell id="p2TIBVilb8GY4Pw8PxJR-29" value="Pod 2" style="rounded=1;whiteSpace=wrap;html=1;" vertex="1" parent="1">
          <mxGeometry x="800" y="510" width="45" height="20" as="geometry" />
        </mxCell>
        <mxCell id="p2TIBVilb8GY4Pw8PxJR-31" value="" style="rounded=1;whiteSpace=wrap;html=1;" vertex="1" parent="1">
          <mxGeometry x="855" y="485" width="114" height="115" as="geometry" />
        </mxCell>
        <mxCell id="p2TIBVilb8GY4Pw8PxJR-32" value="&lt;b&gt;kubelet&lt;/b&gt;" style="text;html=1;strokeColor=none;fillColor=none;align=center;verticalAlign=middle;whiteSpace=wrap;rounded=0;" vertex="1" parent="1">
          <mxGeometry x="875" y="500" width="74" height="20" as="geometry" />
        </mxCell>
        <mxCell id="p2TIBVilb8GY4Pw8PxJR-33" value="cAdvisor" style="rounded=1;whiteSpace=wrap;html=1;fillColor=#B3B3B3;" vertex="1" parent="1">
          <mxGeometry x="875" y="530" width="84" height="50" as="geometry" />
        </mxCell>
        <mxCell id="p2TIBVilb8GY4Pw8PxJR-34" value="" style="rounded=1;whiteSpace=wrap;html=1;fillColor=#B3B3B3;rotation=90;" vertex="1" parent="1">
          <mxGeometry x="680" y="505" width="110" height="50" as="geometry" />
        </mxCell>
        <mxCell id="p2TIBVilb8GY4Pw8PxJR-35" value="SCALE" style="rounded=1;whiteSpace=wrap;html=1;rotation=90;" vertex="1" parent="1">
          <mxGeometry x="692" y="520" width="70" height="20" as="geometry" />
        </mxCell>
        <mxCell id="p2TIBVilb8GY4Pw8PxJR-36" value="Deployment" style="text;html=1;strokeColor=none;fillColor=none;align=center;verticalAlign=middle;whiteSpace=wrap;rounded=0;rotation=90;" vertex="1" parent="1">
          <mxGeometry x="695" y="520" width="115" height="20" as="geometry" />
        </mxCell>
        <mxCell id="p2TIBVilb8GY4Pw8PxJR-37" value="Metrics API &lt;br&gt;Server" style="rounded=1;whiteSpace=wrap;html=1;" vertex="1" parent="1">
          <mxGeometry x="400" y="490" width="90" height="90" as="geometry" />
        </mxCell>
        <mxCell id="p2TIBVilb8GY4Pw8PxJR-38" value="" style="endArrow=classic;html=1;rounded=0;exitX=0.433;exitY=1.08;exitDx=0;exitDy=0;exitPerimeter=0;entryX=0.5;entryY=0;entryDx=0;entryDy=0;" edge="1" parent="1" source="p2TIBVilb8GY4Pw8PxJR-4" target="p2TIBVilb8GY4Pw8PxJR-37">
          <mxGeometry width="50" height="50" relative="1" as="geometry">
            <mxPoint x="700" y="390" as="sourcePoint" />
            <mxPoint x="440" y="480" as="targetPoint" />
          </mxGeometry>
        </mxCell>
        <mxCell id="p2TIBVilb8GY4Pw8PxJR-44" value="" style="curved=1;endArrow=classic;html=1;rounded=0;entryX=0;entryY=0.5;entryDx=0;entryDy=0;exitX=1;exitY=0.5;exitDx=0;exitDy=0;" edge="1" parent="1" source="p2TIBVilb8GY4Pw8PxJR-37" target="p2TIBVilb8GY4Pw8PxJR-14">
          <mxGeometry width="50" height="50" relative="1" as="geometry">
            <mxPoint x="600" y="450" as="sourcePoint" />
            <mxPoint x="650" y="400" as="targetPoint" />
            <Array as="points">
              <mxPoint x="740" y="510" />
              <mxPoint x="600" y="400" />
              <mxPoint x="870" y="400" />
            </Array>
          </mxGeometry>
        </mxCell>
        <mxCell id="p2TIBVilb8GY4Pw8PxJR-45" value="" style="curved=1;endArrow=classic;html=1;rounded=0;exitX=1;exitY=0.75;exitDx=0;exitDy=0;entryX=0;entryY=0.75;entryDx=0;entryDy=0;" edge="1" parent="1" source="p2TIBVilb8GY4Pw8PxJR-37" target="p2TIBVilb8GY4Pw8PxJR-33">
          <mxGeometry width="50" height="50" relative="1" as="geometry">
            <mxPoint x="520" y="570" as="sourcePoint" />
            <mxPoint x="570" y="520" as="targetPoint" />
            <Array as="points">
              <mxPoint x="570" y="570" />
              <mxPoint x="580" y="610" />
              <mxPoint x="700" y="660" />
            </Array>
          </mxGeometry>
        </mxCell>
        <mxCell id="p2TIBVilb8GY4Pw8PxJR-46" value="" style="endArrow=classic;html=1;rounded=0;exitX=1;exitY=0.5;exitDx=0;exitDy=0;entryX=0.5;entryY=1;entryDx=0;entryDy=0;dashed=1;" edge="1" parent="1" source="p2TIBVilb8GY4Pw8PxJR-4" target="p2TIBVilb8GY4Pw8PxJR-24">
          <mxGeometry width="50" height="50" relative="1" as="geometry">
            <mxPoint x="1080" y="64" as="sourcePoint" />
            <mxPoint x="1086" y="190" as="targetPoint" />
          </mxGeometry>
        </mxCell>
        <mxCell id="p2TIBVilb8GY4Pw8PxJR-47" value="" style="endArrow=classic;html=1;rounded=0;exitX=1;exitY=0.75;exitDx=0;exitDy=0;entryX=0.5;entryY=1;entryDx=0;entryDy=0;dashed=1;" edge="1" parent="1" source="p2TIBVilb8GY4Pw8PxJR-4" target="p2TIBVilb8GY4Pw8PxJR-35">
          <mxGeometry width="50" height="50" relative="1" as="geometry">
            <mxPoint x="500" y="345" as="sourcePoint" />
            <mxPoint x="727" y="320" as="targetPoint" />
          </mxGeometry>
        </mxCell>
        <mxCell id="p2TIBVilb8GY4Pw8PxJR-48" value="A scale subresource that belongs to a deployment resource is used by the HPA Controller to set replica count and examine current state" style="text;html=1;strokeColor=none;fillColor=none;align=left;verticalAlign=middle;whiteSpace=wrap;rounded=0;" vertex="1" parent="1">
          <mxGeometry x="560" y="310" width="146" height="120" as="geometry" />
        </mxCell>
        <mxCell id="p2TIBVilb8GY4Pw8PxJR-49" value="The metrics API server queries kubelets cAdvisor process on each cluster node to gather metrics and aggregate them for querying" style="text;html=1;strokeColor=none;fillColor=none;align=center;verticalAlign=middle;whiteSpace=wrap;rounded=0;" vertex="1" parent="1">
          <mxGeometry x="435" y="590" width="145" height="100" as="geometry" />
        </mxCell>
        <mxCell id="p2TIBVilb8GY4Pw8PxJR-50" value="The HPA Controller can set the replica count to a new value if scaling in or out is detected. It uses a basic ratio algorithm between desired metrics and current metrics to figure this out" style="text;html=1;strokeColor=none;fillColor=none;align=left;verticalAlign=middle;whiteSpace=wrap;rounded=0;movable=1;resizable=1;rotatable=1;deletable=1;editable=1;locked=0;connectable=1;" vertex="1" parent="1">
          <mxGeometry x="360" y="240" width="285" height="65" as="geometry" />
        </mxCell>
        <mxCell id="p2TIBVilb8GY4Pw8PxJR-51" value="" style="rounded=1;whiteSpace=wrap;html=1;fillColor=none;" vertex="1" parent="1">
          <mxGeometry x="300" y="100" width="710" height="600" as="geometry" />
        </mxCell>
        <mxCell id="p2TIBVilb8GY4Pw8PxJR-57" value="KUBERNETES CLUSTER" style="text;html=1;strokeColor=none;fillColor=none;align=center;verticalAlign=middle;whiteSpace=wrap;rounded=0;fontStyle=1" vertex="1" parent="1">
          <mxGeometry x="360" y="110" width="190" height="30" as="geometry" />
        </mxCell>
        <mxCell id="p2TIBVilb8GY4Pw8PxJR-58" value="With HPA, pod replicas get added (scaled out) or removed (scaled in) action dictated by the HPV" style="text;html=1;strokeColor=none;fillColor=none;align=center;verticalAlign=middle;whiteSpace=wrap;rounded=0;" vertex="1" parent="1">
          <mxGeometry x="730" y="130" width="170" height="70" as="geometry" />
        </mxCell>
        <mxCell id="p2TIBVilb8GY4Pw8PxJR-60" value="" style="endArrow=classic;html=1;rounded=0;dashed=1;entryX=0;entryY=0.75;entryDx=0;entryDy=0;" edge="1" parent="1" target="p2TIBVilb8GY4Pw8PxJR-8">
          <mxGeometry width="50" height="50" relative="1" as="geometry">
            <mxPoint x="760" y="310" as="sourcePoint" />
            <mxPoint x="810" y="260" as="targetPoint" />
          </mxGeometry>
        </mxCell>
        <mxCell id="p2TIBVilb8GY4Pw8PxJR-61" value="" style="endArrow=classic;html=1;rounded=0;dashed=1;entryX=0;entryY=0.5;entryDx=0;entryDy=0;exitX=0.5;exitY=0;exitDx=0;exitDy=0;" edge="1" parent="1" source="p2TIBVilb8GY4Pw8PxJR-25" target="p2TIBVilb8GY4Pw8PxJR-9">
          <mxGeometry width="50" height="50" relative="1" as="geometry">
            <mxPoint x="770" y="320" as="sourcePoint" />
            <mxPoint x="810" y="265" as="targetPoint" />
          </mxGeometry>
        </mxCell>
        <mxCell id="p2TIBVilb8GY4Pw8PxJR-62" value="" style="endArrow=classic;html=1;rounded=0;dashed=1;entryX=0;entryY=0.5;entryDx=0;entryDy=0;exitX=0.5;exitY=0;exitDx=0;exitDy=0;" edge="1" parent="1" source="p2TIBVilb8GY4Pw8PxJR-25" target="p2TIBVilb8GY4Pw8PxJR-10">
          <mxGeometry width="50" height="50" relative="1" as="geometry">
            <mxPoint x="780" y="330" as="sourcePoint" />
            <mxPoint x="820" y="275" as="targetPoint" />
          </mxGeometry>
        </mxCell>
        <mxCell id="p2TIBVilb8GY4Pw8PxJR-63" value="" style="endArrow=classic;html=1;rounded=0;dashed=1;exitX=0.5;exitY=0;exitDx=0;exitDy=0;entryX=0;entryY=0.75;entryDx=0;entryDy=0;" edge="1" parent="1" source="p2TIBVilb8GY4Pw8PxJR-36" target="p2TIBVilb8GY4Pw8PxJR-28">
          <mxGeometry width="50" height="50" relative="1" as="geometry">
            <mxPoint x="790" y="340" as="sourcePoint" />
            <mxPoint x="1040" y="380" as="targetPoint" />
          </mxGeometry>
        </mxCell>
        <mxCell id="p2TIBVilb8GY4Pw8PxJR-64" value="" style="endArrow=classic;html=1;rounded=0;dashed=1;entryX=0;entryY=0.75;entryDx=0;entryDy=0;exitX=0.5;exitY=0;exitDx=0;exitDy=0;" edge="1" parent="1" source="p2TIBVilb8GY4Pw8PxJR-36" target="p2TIBVilb8GY4Pw8PxJR-29">
          <mxGeometry width="50" height="50" relative="1" as="geometry">
            <mxPoint x="800" y="350" as="sourcePoint" />
            <mxPoint x="840" y="295" as="targetPoint" />
          </mxGeometry>
        </mxCell>
      </root>
    </mxGraphModel>
  </diagram>
</mxfile>
